<svg width="528" height="144" viewBox="0 0 528 144" fill="none" xmlns="http://www.w3.org/2000/svg">
<path d="M156.184 26L125.692 57.3282H66.4337C57.2285 57.3282 41.5947 74.3664 37.5674 81.5114L29.6129 98C7.52045 54.0305 47.6398 31.6794 70.461 26H156.184Z" fill="#8E51FF" stroke="#8E51FF"/>
<path d="M1.18433 126L31.6765 94.6718L90.9349 94.6718C100.14 94.6718 115.774 77.6336 119.801 70.4885L127.756 54C149.848 97.9695 109.729 120.321 86.9077 126L1.18433 126Z" fill="#8E51FF" stroke="#8E51FF"/>
<path d="M224.184 38.992V49.84H196.248V67.024H217.656V77.68H196.248V106H182.808V38.992H224.184ZM282.003 52.816V106H268.467V99.28C266.739 101.584 264.467 103.408 261.651 104.752C258.899 106.032 255.891 106.672 252.627 106.672C248.467 106.672 244.787 105.808 241.587 104.08C238.387 102.288 235.859 99.696 234.003 96.304C232.211 92.848 231.315 88.752 231.315 84.016V52.816H244.755V82.096C244.755 86.32 245.811 89.584 247.923 91.888C250.035 94.128 252.915 95.248 256.563 95.248C260.275 95.248 263.187 94.128 265.299 91.888C267.411 89.584 268.467 86.32 268.467 82.096V52.816H282.003ZM306.783 61.072C308.511 58.256 310.751 56.048 313.503 54.448C316.319 52.848 319.519 52.048 323.103 52.048V66.16H319.551C315.327 66.16 312.127 67.152 309.951 69.136C307.839 71.12 306.783 74.576 306.783 79.504V106H293.343V52.816H306.783V61.072ZM359.708 52.048C366.044 52.048 371.164 54.064 375.068 58.096C378.972 62.064 380.924 67.632 380.924 74.8V106H367.484V76.624C367.484 72.4 366.428 69.168 364.316 66.928C362.204 64.624 359.324 63.472 355.676 63.472C351.964 63.472 349.02 64.624 346.844 66.928C344.732 69.168 343.676 72.4 343.676 76.624V106H330.236V52.816H343.676V59.44C345.468 57.136 347.74 55.344 350.492 54.064C353.308 52.72 356.38 52.048 359.708 52.048ZM398.601 46.48C396.233 46.48 394.249 45.744 392.649 44.272C391.113 42.736 390.345 40.848 390.345 38.608C390.345 36.368 391.113 34.512 392.649 33.04C394.249 31.504 396.233 30.736 398.601 30.736C400.969 30.736 402.921 31.504 404.457 33.04C406.057 34.512 406.857 36.368 406.857 38.608C406.857 40.848 406.057 42.736 404.457 44.272C402.921 45.744 400.969 46.48 398.601 46.48ZM405.225 52.816V106H391.785V52.816H405.225ZM413.127 79.408C413.127 73.904 414.247 69.104 416.487 65.008C418.727 60.848 421.831 57.648 425.799 55.408C429.767 53.104 434.311 51.952 439.431 51.952C446.023 51.952 451.463 53.616 455.751 56.944C460.103 60.208 463.015 64.816 464.487 70.768H449.991C449.223 68.464 447.911 66.672 446.055 65.392C444.263 64.048 442.023 63.376 439.335 63.376C435.495 63.376 432.455 64.784 430.215 67.6C427.975 70.352 426.855 74.288 426.855 79.408C426.855 84.464 427.975 88.4 430.215 91.216C432.455 93.968 435.495 95.344 439.335 95.344C444.775 95.344 448.327 92.912 449.991 88.048H464.487C463.015 93.808 460.103 98.384 455.751 101.776C451.399 105.168 445.959 106.864 439.431 106.864C434.311 106.864 429.767 105.744 425.799 103.504C421.831 101.2 418.727 98 416.487 93.904C414.247 89.744 413.127 84.912 413.127 79.408ZM496.029 106.864C490.909 106.864 486.301 105.744 482.205 103.504C478.109 101.2 474.877 97.968 472.509 93.808C470.205 89.648 469.053 84.848 469.053 79.408C469.053 73.968 470.237 69.168 472.605 65.008C475.037 60.848 478.333 57.648 482.493 55.408C486.653 53.104 491.293 51.952 496.413 51.952C501.533 51.952 506.173 53.104 510.333 55.408C514.493 57.648 517.757 60.848 520.125 65.008C522.557 69.168 523.773 73.968 523.773 79.408C523.773 84.848 522.525 89.648 520.029 93.808C517.597 97.968 514.269 101.2 510.045 103.504C505.885 105.744 501.213 106.864 496.029 106.864ZM496.029 95.152C498.461 95.152 500.733 94.576 502.845 93.424C505.021 92.208 506.749 90.416 508.029 88.048C509.309 85.68 509.949 82.8 509.949 79.408C509.949 74.352 508.605 70.48 505.917 67.792C503.293 65.04 500.061 63.664 496.221 63.664C492.381 63.664 489.149 65.04 486.525 67.792C483.965 70.48 482.685 74.352 482.685 79.408C482.685 84.464 483.933 88.368 486.429 91.12C488.989 93.808 492.189 95.152 496.029 95.152Z" fill="black"/>
</svg>
